<?xml version="1.0" standalone="no"?>
<!DOCTYPE svg PUBLIC "-//W3C//DTD SVG 20010904//EN"
 "http://www.w3.org/TR/2001/REC-SVG-20010904/DTD/svg10.dtd">
<svg version="1.0" xmlns="http://www.w3.org/2000/svg"
 width="500.000000pt" height="500.000000pt" viewBox="0 0 500.000000 500.000000"
 preserveAspectRatio="xMidYMid meet">

<g transform="translate(0.000000,500.000000) scale(0.100000,-0.100000)"
fill="#000000" stroke="none">
<path d="M2210 4989 c-910 -104 -1706 -717 -2041 -1573 -78 -199 -136 -431
-159 -641 -13 -116 -13 -434 0 -550 94 -844 609 -1583 1369 -1965 260 -130
557 -218 846 -250 116 -13 434 -13 550 0 844 94 1583 609 1965 1369 130 260
218 557 250 846 13 116 13 434 0 550 -94 844 -609 1583 -1369 1965 -260 130
-557 218 -846 250 -106 12 -458 11 -565 -1z m307 -1834 c21 -15 61 -64 368
-455 103 -131 161 -205 223 -283 l62 -78 0 384 0 383 28 27 c41 40 101 38 136
-4 l26 -31 0 -549 0 -550 -25 -25 -25 -25 -443 3 c-407 3 -445 4 -470 21 -16
10 -32 29 -37 43 -6 15 -10 222 -10 500 l0 474 -160 0 -159 0 -3 -486 -3 -486
-33 -29 c-46 -41 -111 -41 -153 0 l-29 29 0 543 0 542 36 33 35 34 307 0 c256
0 311 -2 329 -15z"/>
<path d="M2550 2450 l0 -320 251 0 c197 0 249 3 243 13 -8 13 -377 483 -451
575 l-43 53 0 -321z"/>
</g>
</svg>
