<?xml version="1.0" standalone="no"?>
<!DOCTYPE svg PUBLIC "-//W3C//DTD SVG 20010904//EN"
 "http://www.w3.org/TR/2001/REC-SVG-20010904/DTD/svg10.dtd">
<svg version="1.0" xmlns="http://www.w3.org/2000/svg"
 width="500.000000pt" height="500.000000pt" viewBox="0 0 500.000000 500.000000"
 preserveAspectRatio="xMidYMid meet">

<g transform="translate(0.000000,500.000000) scale(0.100000,-0.100000)"
fill="#000000" stroke="none">
<path d="M914 3772 c-71 -46 -117 -98 -133 -151 -8 -28 -11 -367 -11 -1233 0
-1336 -5 -1247 72 -1325 119 -122 332 -84 404 71 l24 51 0 1113 0 1112 390 0
390 0 0 -1116 c0 -819 3 -1127 12 -1155 15 -52 69 -113 116 -132 33 -13 182
-17 1046 -27 l1007 -12 47 24 c25 13 60 40 76 61 l31 39 3 1251 c2 957 0 1262
-9 1296 -16 58 -81 125 -134 140 -91 25 -171 4 -232 -60 -61 -64 -58 -18 -63
-978 l-5 -884 -740 944 c-622 792 -748 948 -789 974 l-49 30 -697 3 -696 3
-60 -39z m2405 -1902 l382 -485 -343 -3 c-189 -2 -461 0 -605 3 l-263 7 0 765
0 765 223 -284 c123 -156 396 -501 606 -768z"/>
</g>
</svg>
