<?xml version="1.0" standalone="no"?>
<!DOCTYPE svg PUBLIC "-//W3C//DTD SVG 20010904//EN"
 "http://www.w3.org/TR/2001/REC-SVG-20010904/DTD/svg10.dtd">
<svg version="1.0" xmlns="http://www.w3.org/2000/svg"
  width="500.000000pt" height="500.000000pt" viewBox="0 0 500.000000 500.000000"
 preserveAspectRatio="xMidYMid meet">

<g transform="translate(0.000000,500.000000) scale(0.100000,-0.100000)"
fill="#000000" stroke="none">
<path d="M0 2500 l0 -2500 2500 0 2500 0 0 2500 0 2500 -2500 0 -2500 0 0
-2500z m2380 1298 c19 -6 47 -19 62 -30 15 -10 359 -442 765 -959 l738 -941 5
888 c6 991 0 917 76 983 48 43 73 51 152 51 82 0 132 -25 177 -88 l30 -44 5
-1266 c5 -1254 5 -1267 -15 -1311 -11 -25 -37 -59 -58 -75 l-39 -31 -296 -3
c-164 -1 -630 1 -1037 6 -722 8 -741 9 -780 29 -50 26 -80 58 -100 105 -13 33
-15 169 -15 1161 l0 1124 -257 6 c-141 4 -316 7 -389 7 l-134 0 -2 -1134 -3
-1134 -30 -43 c-48 -68 -113 -103 -201 -107 -88 -5 -134 9 -187 57 -83 75 -77
-38 -77 1341 l0 1226 23 44 c24 49 118 131 170 148 43 15 1367 5 1417 -10z"/>
<path d="M2490 2152 l0 -759 596 -7 c328 -4 598 -5 600 -3 3 2 -266 347 -596
766 l-600 763 0 -760z"/>
</g>
</svg>
