<?xml version="1.0" standalone="no"?>
<!DOCTYPE svg PUBLIC "-//W3C//DTD SVG 20010904//EN"
 "http://www.w3.org/TR/2001/REC-SVG-20010904/DTD/svg10.dtd">
<svg version="1.0" xmlns="http://www.w3.org/2000/svg"
 width="500.000000pt" height="500.000000pt" viewBox="0 0 500.000000 500.000000"
 preserveAspectRatio="xMidYMid meet">

<g transform="translate(0.000000,500.000000) scale(0.100000,-0.100000)"
fill="#000000" stroke="none">
<path d="M1 3858 c1 -693 5 -1113 10 -1068 104 910 717 1706 1573 2041 192 75
431 136 626 158 45 5 -375 9 -1067 10 l-1143 1 1 -1142z"/>
<path d="M2790 4989 c910 -104 1706 -717 2041 -1573 75 -192 136 -431 158
-626 5 -45 9 375 10 1068 l1 1142 -1142 -1 c-693 -1 -1113 -5 -1068 -10z"/>
<path d="M1877 3166 c-16 -9 -37 -26 -47 -38 -18 -22 -19 -48 -19 -568 0 -528
0 -546 19 -569 25 -29 95 -40 140 -21 60 25 60 22 60 545 l0 475 160 0 160 0
0 -480 c0 -510 1 -524 47 -546 10 -5 221 -10 469 -12 l451 -3 28 32 c22 27 26
39 21 68 -3 20 -6 266 -6 547 l0 511 -25 27 c-40 43 -128 34 -157 -17 -10 -16
-14 -118 -18 -390 l-5 -368 -75 97 c-41 53 -94 122 -118 153 -24 31 -51 65
-60 76 -9 11 -58 72 -107 135 -49 63 -92 117 -95 120 -3 3 -28 34 -55 70 -125
164 -119 160 -230 160 -50 0 -186 3 -301 6 -178 5 -213 3 -237 -10z m752 -501
c27 -33 76 -94 108 -135 33 -41 102 -129 154 -195 52 -66 110 -140 129 -164
l34 -44 -144 6 c-80 4 -193 7 -252 7 l-108 0 0 313 c1 279 2 310 16 292 8 -11
37 -47 63 -80z"/>
<path d="M1 1143 l-1 -1143 1143 1 c692 1 1112 5 1067 10 -910 104 -1706 717
-2041 1573 -75 192 -136 431 -158 626 -5 45 -9 -375 -10 -1067z"/>
<path d="M4987 2207 c-14 -168 -79 -427 -156 -623 -252 -644 -771 -1163 -1415
-1415 -192 -75 -431 -136 -626 -158 -45 -5 375 -9 1068 -10 l1142 -1 0 1140
c0 627 -2 1140 -4 1140 -1 0 -6 -33 -9 -73z"/>
</g>
</svg>
